<svg width="176" height="50" viewBox="0 0 176 50" fill="none" xmlns="http://www.w3.org/2000/svg">
<rect x="132" y="26" width="31.1127" height="31.1127" rx="3" transform="rotate(-45 132 26)" fill="#1B1B1B"/>
<circle cx="154.049" cy="25.9999" r="12.5995" fill="white"/>
<rect x="146.174" y="18.125" width="15.8614" height="15.8614" rx="3" fill="#1B1B1B"/>
<circle cx="154.028" cy="25.9788" r="5.49048" fill="white"/>
<rect width="3.55887" height="3.55887" rx="1" transform="matrix(0.707081 -0.707133 0.707081 0.707133 151.687 26)" fill="#1B1B1B"/>
<path d="M2.988 41H1.998V28.4C2.262 28.4 2.808 28.394 3.636 28.382C4.464 28.37 4.926 28.364 5.022 28.364C7.962 28.364 9.432 29.576 9.432 32C9.432 32.876 9.15 33.638 8.586 34.286C8.022 34.922 7.308 35.33 6.444 35.51L10.854 41H9.63L5.436 35.708H2.988V41ZM4.968 29.3C4.44 29.3 3.78 29.312 2.988 29.336V34.772H5.166C6.006 34.772 6.75 34.514 7.398 33.998C8.058 33.47 8.388 32.804 8.388 32C8.388 30.2 7.248 29.3 4.968 29.3ZM18.3945 39.29L18.7005 40.01C17.9685 40.778 16.9725 41.162 15.7125 41.162C14.4285 41.162 13.3905 40.778 12.5985 40.01C11.8065 39.242 11.4105 38.222 11.4105 36.95C11.4105 35.726 11.7705 34.718 12.4905 33.926C13.2225 33.134 14.2305 32.738 15.5145 32.738C16.5705 32.738 17.4465 33.074 18.1425 33.746C18.8385 34.418 19.1865 35.3 19.1865 36.392C19.1865 36.68 19.1685 36.932 19.1325 37.148H12.4545C12.4905 38.12 12.8085 38.888 13.4085 39.452C14.0085 40.004 14.7945 40.28 15.7665 40.28C16.8825 40.28 17.7585 39.95 18.3945 39.29ZM15.4245 33.62C14.5485 33.62 13.8465 33.878 13.3185 34.394C12.7905 34.898 12.4845 35.558 12.4005 36.374H18.2325C18.2205 35.522 17.9625 34.85 17.4585 34.358C16.9545 33.866 16.2765 33.62 15.4245 33.62ZM27.4773 44.6V40.118C27.1413 40.43 26.7333 40.682 26.2533 40.874C25.7853 41.066 25.3113 41.162 24.8313 41.162C23.5833 41.162 22.5813 40.784 21.8253 40.028C21.0813 39.26 20.7093 38.234 20.7093 36.95C20.7093 35.762 21.1353 34.766 21.9873 33.962C22.8393 33.146 23.9073 32.738 25.1913 32.738C26.4273 32.738 27.5013 33.032 28.4133 33.62V44.6H27.4773ZM24.9393 40.28C25.4313 40.28 25.9173 40.16 26.3973 39.92C26.8773 39.68 27.2373 39.404 27.4773 39.092V34.214C26.7813 33.818 26.0133 33.62 25.1733 33.62C24.1773 33.62 23.3493 33.944 22.6893 34.592C22.0293 35.24 21.6993 36.038 21.6993 36.986C21.6993 37.982 21.9933 38.78 22.5813 39.38C23.1693 39.98 23.9553 40.28 24.9393 40.28ZM38.1997 32.9V41H37.2637V39.722C36.9397 40.13 36.4957 40.472 35.9317 40.748C35.3797 41.024 34.7977 41.162 34.1857 41.162C32.1217 41.162 31.0897 39.974 31.0897 37.598V32.9H32.0257V37.4C32.0257 39.32 32.8597 40.28 34.5277 40.28C35.0557 40.28 35.5717 40.142 36.0757 39.866C36.5797 39.578 36.9757 39.248 37.2637 38.876V32.9H38.1997ZM47.4687 39.29L47.7747 40.01C47.0427 40.778 46.0467 41.162 44.7867 41.162C43.5027 41.162 42.4647 40.778 41.6727 40.01C40.8807 39.242 40.4847 38.222 40.4847 36.95C40.4847 35.726 40.8447 34.718 41.5647 33.926C42.2967 33.134 43.3047 32.738 44.5887 32.738C45.6447 32.738 46.5207 33.074 47.2167 33.746C47.9127 34.418 48.2607 35.3 48.2607 36.392C48.2607 36.68 48.2427 36.932 48.2067 37.148H41.5287C41.5647 38.12 41.8827 38.888 42.4827 39.452C43.0827 40.004 43.8687 40.28 44.8407 40.28C45.9567 40.28 46.8327 39.95 47.4687 39.29ZM44.4987 33.62C43.6227 33.62 42.9207 33.878 42.3927 34.394C41.8647 34.898 41.5587 35.558 41.4747 36.374H47.3067C47.2947 35.522 47.0367 34.85 46.5327 34.358C46.0287 33.866 45.3507 33.62 44.4987 33.62ZM54.6941 38.876C54.6941 38.504 54.5381 38.204 54.2261 37.976C53.9261 37.748 53.5541 37.568 53.1101 37.436C52.6781 37.304 52.2401 37.16 51.7961 37.004C51.3521 36.836 50.9741 36.578 50.6621 36.23C50.3621 35.882 50.2121 35.432 50.2121 34.88C50.2121 34.232 50.4521 33.716 50.9321 33.332C51.4121 32.936 52.0421 32.738 52.8221 32.738C53.9381 32.738 54.7841 33.038 55.3601 33.638L54.9641 34.34C54.4121 33.824 53.7041 33.566 52.8401 33.566C52.3481 33.566 51.9521 33.692 51.6521 33.944C51.3521 34.196 51.2021 34.502 51.2021 34.862C51.2021 35.258 51.3521 35.576 51.6521 35.816C51.9641 36.056 52.3361 36.248 52.7681 36.392C53.2121 36.524 53.6561 36.668 54.1001 36.824C54.5441 36.98 54.9161 37.226 55.2161 37.562C55.5281 37.886 55.6841 38.312 55.6841 38.84C55.6841 39.596 55.4021 40.172 54.8381 40.568C54.2861 40.964 53.5961 41.162 52.7681 41.162C52.2161 41.162 51.6641 41.042 51.1121 40.802C50.5601 40.562 50.1881 40.292 49.9961 39.992L50.5181 39.38C50.7341 39.656 51.0761 39.884 51.5441 40.064C52.0121 40.244 52.4561 40.334 52.8761 40.334C53.3801 40.334 53.8061 40.208 54.1541 39.956C54.5141 39.704 54.6941 39.344 54.6941 38.876ZM57.8436 37.922V30.65H58.7796V32.9H62.0376V33.782H58.7796V37.778C58.7796 39.41 59.3856 40.226 60.5976 40.226C61.0776 40.226 61.5096 40.082 61.8936 39.794L62.1996 40.532C61.7196 40.916 61.1136 41.108 60.3816 41.108C59.5056 41.108 58.8636 40.844 58.4556 40.316C58.0476 39.776 57.8436 38.978 57.8436 37.922ZM68.3267 41V29.1H68.5477C68.7744 29.1 69.3014 29.0943 70.1287 29.083C70.9561 29.0603 71.5227 29.049 71.8287 29.049C72.9847 29.049 73.9991 29.2077 74.8717 29.525C75.7444 29.831 76.4414 30.2617 76.9627 30.817C77.4841 31.3723 77.8694 31.9957 78.1187 32.687C78.3794 33.367 78.5097 34.115 78.5097 34.931C78.5097 36.699 77.9147 38.161 76.7247 39.317C75.5461 40.4617 73.8687 41.034 71.6927 41.034C71.4887 41.034 71.0127 41.0283 70.2647 41.017C69.5281 41.0057 68.9614 41 68.5647 41H68.3267ZM71.7947 31.004C71.3527 31.004 70.8937 31.021 70.4177 31.055V39.045C70.8031 39.0677 71.2507 39.079 71.7607 39.079C73.1774 39.079 74.2881 38.705 75.0927 37.957C75.8974 37.209 76.2997 36.2003 76.2997 34.931C76.2997 33.7183 75.8974 32.7607 75.0927 32.058C74.2994 31.3553 73.2001 31.004 71.7947 31.004ZM86.1349 38.858L86.6959 40.235C85.9479 40.8697 84.9732 41.187 83.7719 41.187C82.5366 41.187 81.5392 40.8187 80.7799 40.082C80.0319 39.3453 79.6579 38.3763 79.6579 37.175C79.6579 36.0303 80.0262 35.0783 80.7629 34.319C81.4996 33.5483 82.4799 33.163 83.7039 33.163C84.7126 33.163 85.5682 33.4973 86.2709 34.166C86.9736 34.8233 87.3249 35.6733 87.3249 36.716C87.3249 37.1467 87.2852 37.498 87.2059 37.77H81.6809C81.7602 38.3367 82.0096 38.7787 82.4289 39.096C82.8482 39.402 83.3639 39.555 83.9759 39.555C84.8372 39.555 85.5569 39.3227 86.1349 38.858ZM83.6189 34.795C82.5082 34.795 81.8396 35.3503 81.6129 36.461H85.3699C85.3812 35.985 85.2282 35.5883 84.9109 35.271C84.5936 34.9537 84.1629 34.795 83.6189 34.795ZM92.4865 39.368C92.6792 39.2433 92.7755 39.0677 92.7755 38.841C92.7755 38.6143 92.6339 38.433 92.3505 38.297C92.0672 38.1497 91.7215 38.025 91.3135 37.923C90.9169 37.8097 90.5145 37.6793 90.1065 37.532C89.6985 37.3733 89.3529 37.124 89.0695 36.784C88.7862 36.444 88.6445 36.0133 88.6445 35.492C88.6445 34.7667 88.9052 34.2 89.4265 33.792C89.9592 33.3727 90.6335 33.163 91.4495 33.163C92.6962 33.163 93.6652 33.486 94.3565 34.132L93.6255 35.526C93.0022 35.0387 92.3109 34.795 91.5515 34.795C91.2682 34.795 91.0359 34.863 90.8545 34.999C90.6845 35.1237 90.5995 35.2767 90.5995 35.458C90.5995 35.6847 90.7412 35.8717 91.0245 36.019C91.3079 36.1663 91.6479 36.291 92.0445 36.393C92.4525 36.495 92.8605 36.6197 93.2685 36.767C93.6765 36.9143 94.0222 37.158 94.3055 37.498C94.5889 37.8267 94.7305 38.2403 94.7305 38.739C94.7305 39.487 94.4472 40.082 93.8805 40.524C93.3252 40.966 92.5772 41.187 91.6365 41.187C90.9792 41.187 90.3275 41.0453 89.6815 40.762C89.0469 40.4787 88.6332 40.184 88.4405 39.878L89.3925 38.603C89.6192 38.8523 89.9762 39.0733 90.4635 39.266C90.9509 39.4587 91.3872 39.555 91.7725 39.555C92.0672 39.555 92.3052 39.4927 92.4865 39.368ZM96.7422 41V33.35H98.6972V41H96.7422ZM96.5382 30.596C96.5382 30.256 96.6572 29.984 96.8952 29.78C97.1332 29.5647 97.4222 29.457 97.7622 29.457C98.0569 29.457 98.3176 29.5647 98.5442 29.78C98.7709 29.984 98.8842 30.256 98.8842 30.596C98.8842 30.97 98.7709 31.2703 98.5442 31.497C98.3176 31.7123 98.0569 31.82 97.7622 31.82C97.4109 31.82 97.1162 31.7123 96.8782 31.497C96.6516 31.2703 96.5382 30.97 96.5382 30.596ZM100.165 42.037C100.165 41.425 100.386 40.9207 100.828 40.524C101.281 40.116 101.888 39.8327 102.647 39.674C102.556 39.5153 102.511 39.3397 102.511 39.147C102.511 38.9317 102.568 38.7503 102.681 38.603C102.114 38.3763 101.667 38.0363 101.338 37.583C101.021 37.1183 100.862 36.6027 100.862 36.036C100.862 35.2427 101.162 34.5683 101.763 34.013C102.364 33.4463 103.151 33.163 104.126 33.163C104.863 33.163 105.514 33.3443 106.081 33.707L108.393 33.197L108.461 34.761L107.186 35.05C107.311 35.3673 107.373 35.696 107.373 36.036C107.373 36.818 107.073 37.4867 106.472 38.042C105.871 38.586 105.089 38.858 104.126 38.858H103.99C103.967 38.926 103.956 39.0223 103.956 39.147C103.956 39.2943 103.99 39.4247 104.058 39.538H104.143C105.322 39.538 106.279 39.7477 107.016 40.167C107.753 40.5863 108.121 41.2097 108.121 42.037C108.121 42.8643 107.753 43.4877 107.016 43.907C106.279 44.3263 105.322 44.536 104.143 44.536C102.953 44.536 101.99 44.3263 101.253 43.907C100.528 43.499 100.165 42.8757 100.165 42.037ZM101.984 42.037C101.984 42.3317 102.177 42.5583 102.562 42.717C102.947 42.887 103.474 42.972 104.143 42.972C105.571 42.972 106.285 42.6603 106.285 42.037C106.285 41.7537 106.098 41.527 105.724 41.357C105.361 41.187 104.834 41.102 104.143 41.102C103.463 41.102 102.93 41.187 102.545 41.357C102.171 41.527 101.984 41.7537 101.984 42.037ZM103.089 35.118C102.828 35.3673 102.698 35.6733 102.698 36.036C102.698 36.3987 102.828 36.699 103.089 36.937C103.35 37.1637 103.695 37.277 104.126 37.277C104.545 37.277 104.885 37.1637 105.146 36.937C105.418 36.7103 105.554 36.41 105.554 36.036C105.554 35.662 105.424 35.356 105.163 35.118C104.914 34.8687 104.568 34.744 104.126 34.744C103.695 34.744 103.35 34.8687 103.089 35.118ZM109.651 41V33.35H111.606V34.115C112.162 33.5143 112.893 33.214 113.799 33.214C115.896 33.214 116.944 34.3133 116.944 36.512V41H114.989V36.852C114.989 35.6507 114.417 35.05 113.272 35.05C112.649 35.05 112.094 35.2937 111.606 35.781V41H109.651Z" fill="#1B1B1B"/>
<path d="M31.04 15H29.68V3.8C29.8827 3.8 30.3573 3.79467 31.104 3.784C31.8613 3.77333 32.3627 3.768 32.608 3.768C34.08 3.768 35.136 4.09867 35.776 4.76C36.4267 5.41067 36.752 6.23733 36.752 7.24C36.752 8.22133 36.4 9.05333 35.696 9.736C35.0027 10.4187 34.0107 10.76 32.72 10.76C32.1013 10.76 31.5413 10.7387 31.04 10.696V15ZM32.736 5.048C32.3093 5.048 31.744 5.05867 31.04 5.08V9.4C31.648 9.45333 32.192 9.48 32.672 9.48C33.4933 9.48 34.1387 9.28267 34.608 8.888C35.0773 8.48267 35.312 7.928 35.312 7.224C35.312 6.54133 35.0987 6.008 34.672 5.624C34.2453 5.24 33.6 5.048 32.736 5.048ZM38.411 9.32L38.075 8.296C38.779 7.85867 39.579 7.64 40.475 7.64C41.467 7.64 42.1763 7.88533 42.603 8.376C43.0297 8.86667 43.243 9.60267 43.243 10.584V15H42.027V14.072C41.4723 14.7653 40.7043 15.112 39.723 15.112C39.0617 15.112 38.5283 14.9147 38.123 14.52C37.7177 14.1147 37.515 13.5707 37.515 12.888C37.515 12.1733 37.7657 11.6133 38.267 11.208C38.779 10.8027 39.435 10.6 40.235 10.6C41.003 10.6 41.6003 10.7547 42.027 11.064C42.027 10.296 41.9203 9.72533 41.707 9.352C41.4937 8.97867 41.0563 8.792 40.395 8.792C39.7443 8.792 39.083 8.968 38.411 9.32ZM40.171 13.96C40.8857 13.96 41.5043 13.6507 42.027 13.032V12.12C41.579 11.8 41.0403 11.64 40.411 11.64C39.9843 11.64 39.6217 11.7413 39.323 11.944C39.0243 12.1467 38.875 12.44 38.875 12.824C38.875 13.176 38.987 13.4533 39.211 13.656C39.4457 13.8587 39.7657 13.96 40.171 13.96ZM47.7704 15.16C47.2157 15.16 46.6397 15.0693 46.0424 14.888C45.445 14.696 45.029 14.4613 44.7944 14.184L45.4504 13.224C45.7384 13.4587 46.0797 13.6507 46.4744 13.8C46.8797 13.9387 47.2477 14.008 47.5784 14.008C48.133 14.008 48.5864 13.9013 48.9384 13.688C49.2904 13.464 49.4664 13.176 49.4664 12.824C49.4664 12.5253 49.3384 12.296 49.0824 12.136C48.837 11.976 48.4957 11.896 48.0584 11.896H46.8424V10.856H47.9784C48.341 10.856 48.6397 10.76 48.8744 10.568C49.109 10.3653 49.2264 10.12 49.2264 9.832C49.2264 9.512 49.0877 9.26133 48.8104 9.08C48.533 8.888 48.1597 8.792 47.6904 8.792C46.9224 8.792 46.2024 9.05867 45.5304 9.592L45.0344 8.6C45.3224 8.30133 45.7224 8.06667 46.2344 7.896C46.757 7.72533 47.3064 7.64 47.8824 7.64C48.7464 7.64 49.413 7.816 49.8824 8.168C50.3517 8.50933 50.5864 8.97867 50.5864 9.576C50.5864 10.408 50.165 10.9733 49.3224 11.272V11.304C49.8024 11.3573 50.1704 11.544 50.4264 11.864C50.693 12.184 50.8264 12.5627 50.8264 13C50.8264 13.6613 50.5437 14.1893 49.9784 14.584C49.413 14.968 48.677 15.16 47.7704 15.16ZM52.777 18.2V7.8H54.057V8.648C54.313 8.34933 54.6597 8.10933 55.097 7.928C55.545 7.736 56.0143 7.64 56.505 7.64C57.5183 7.64 58.3237 7.98133 58.921 8.664C59.529 9.336 59.833 10.2107 59.833 11.288C59.833 12.3973 59.4863 13.32 58.793 14.056C58.0997 14.792 57.1983 15.16 56.089 15.16C55.2357 15.16 54.5583 14.9947 54.057 14.664V18.2H52.777ZM56.137 8.84C55.2837 8.84 54.5903 9.17067 54.057 9.832V13.4C54.6117 13.7733 55.2517 13.96 55.977 13.96C56.7343 13.96 57.337 13.7147 57.785 13.224C58.2437 12.7333 58.473 12.104 58.473 11.336C58.473 10.5893 58.265 9.98667 57.849 9.528C57.433 9.06933 56.8623 8.84 56.137 8.84ZM62.0516 9.32L61.7156 8.296C62.4196 7.85867 63.2196 7.64 64.1156 7.64C65.1076 7.64 65.817 7.88533 66.2436 8.376C66.6703 8.86667 66.8836 9.60267 66.8836 10.584V15H65.6676V14.072C65.113 14.7653 64.345 15.112 63.3636 15.112C62.7023 15.112 62.169 14.9147 61.7636 14.52C61.3583 14.1147 61.1556 13.5707 61.1556 12.888C61.1556 12.1733 61.4063 11.6133 61.9076 11.208C62.4196 10.8027 63.0756 10.6 63.8756 10.6C64.6436 10.6 65.241 10.7547 65.6676 11.064C65.6676 10.296 65.561 9.72533 65.3476 9.352C65.1343 8.97867 64.697 8.792 64.0356 8.792C63.385 8.792 62.7236 8.968 62.0516 9.32ZM63.8116 13.96C64.5263 13.96 65.145 13.6507 65.6676 13.032V12.12C65.2196 11.8 64.681 11.64 64.0516 11.64C63.625 11.64 63.2623 11.7413 62.9636 11.944C62.665 12.1467 62.5156 12.44 62.5156 12.824C62.5156 13.176 62.6276 13.4533 62.8516 13.656C63.0863 13.8587 63.4063 13.96 63.8116 13.96ZM74.595 3.64L75.283 4.648C75.027 5 74.7177 5.24 74.355 5.368C73.9923 5.496 73.5443 5.60267 73.011 5.688C72.4777 5.77333 72.0137 5.90667 71.619 6.088C70.531 6.57867 69.923 7.736 69.795 9.56H69.827C70.0617 9.05867 70.4403 8.65333 70.963 8.344C71.4963 8.03467 72.067 7.88 72.675 7.88C73.699 7.88 74.5097 8.20533 75.107 8.856C75.715 9.50667 76.019 10.376 76.019 11.464C76.019 12.488 75.6723 13.3627 74.979 14.088C74.2857 14.8027 73.4003 15.16 72.323 15.16C71.1497 15.16 70.2217 14.76 69.539 13.96C68.8563 13.16 68.515 12.0667 68.515 10.68C68.515 7.55467 69.4057 5.61867 71.187 4.872C71.6243 4.68 72.0937 4.54667 72.595 4.472C73.0963 4.38667 73.5017 4.296 73.811 4.2C74.1203 4.104 74.3817 3.91733 74.595 3.64ZM69.875 10.92C69.875 11.8373 70.099 12.5733 70.547 13.128C70.995 13.6827 71.5763 13.96 72.291 13.96C72.9843 13.96 73.5497 13.7253 73.987 13.256C74.435 12.7867 74.659 12.2107 74.659 11.528C74.659 10.8027 74.4563 10.216 74.051 9.768C73.6457 9.30933 73.0803 9.08 72.355 9.08C71.715 9.08 71.171 9.26133 70.723 9.624C70.275 9.98667 69.9923 10.4187 69.875 10.92ZM78.4311 14.104C77.7271 13.3893 77.3751 12.488 77.3751 11.4C77.3751 10.312 77.7271 9.416 78.4311 8.712C79.1458 7.99733 80.0738 7.64 81.2151 7.64C82.3565 7.64 83.2791 7.99733 83.9831 8.712C84.6978 9.416 85.0551 10.312 85.0551 11.4C85.0551 12.488 84.6978 13.3893 83.9831 14.104C83.2791 14.808 82.3565 15.16 81.2151 15.16C80.0738 15.16 79.1458 14.808 78.4311 14.104ZM78.7351 11.4C78.7351 12.1467 78.9645 12.76 79.4231 13.24C79.8925 13.72 80.4898 13.96 81.2151 13.96C81.9405 13.96 82.5325 13.7253 82.9911 13.256C83.4605 12.776 83.6951 12.1573 83.6951 11.4C83.6951 10.6533 83.4605 10.04 82.9911 9.56C82.5325 9.08 81.9405 8.84 81.2151 8.84C80.5005 8.84 79.9085 9.08 79.4391 9.56C78.9698 10.0293 78.7351 10.6427 78.7351 11.4ZM85.7088 9.08V7.8H92.2688V9.08H89.6288V15H88.3488V9.08H85.7088ZM94.0516 9.32L93.7156 8.296C94.4196 7.85867 95.2196 7.64 96.1156 7.64C97.1076 7.64 97.817 7.88533 98.2436 8.376C98.6703 8.86667 98.8836 9.60267 98.8836 10.584V15H97.6676V14.072C97.113 14.7653 96.345 15.112 95.3636 15.112C94.7023 15.112 94.169 14.9147 93.7636 14.52C93.3583 14.1147 93.1556 13.5707 93.1556 12.888C93.1556 12.1733 93.4063 11.6133 93.9076 11.208C94.4196 10.8027 95.0756 10.6 95.8756 10.6C96.6436 10.6 97.241 10.7547 97.6676 11.064C97.6676 10.296 97.561 9.72533 97.3476 9.352C97.1343 8.97867 96.697 8.792 96.0356 8.792C95.385 8.792 94.7236 8.968 94.0516 9.32ZM95.8116 13.96C96.5263 13.96 97.145 13.6507 97.6676 13.032V12.12C97.2196 11.8 96.681 11.64 96.0516 11.64C95.625 11.64 95.2623 11.7413 94.9636 11.944C94.665 12.1467 94.5156 12.44 94.5156 12.824C94.5156 13.176 94.6276 13.4533 94.8516 13.656C95.0863 13.8587 95.4063 13.96 95.8116 13.96ZM106.307 15V11.96H102.307V15H101.027V7.8H102.307V10.76H106.307V7.8H107.587V15H106.307ZM110.478 14.104C109.774 13.3893 109.422 12.488 109.422 11.4C109.422 10.312 109.774 9.416 110.478 8.712C111.193 7.99733 112.121 7.64 113.262 7.64C114.403 7.64 115.326 7.99733 116.03 8.712C116.745 9.416 117.102 10.312 117.102 11.4C117.102 12.488 116.745 13.3893 116.03 14.104C115.326 14.808 114.403 15.16 113.262 15.16C112.121 15.16 111.193 14.808 110.478 14.104ZM110.782 11.4C110.782 12.1467 111.011 12.76 111.47 13.24C111.939 13.72 112.537 13.96 113.262 13.96C113.987 13.96 114.579 13.7253 115.038 13.256C115.507 12.776 115.742 12.1573 115.742 11.4C115.742 10.6533 115.507 10.04 115.038 9.56C114.579 9.08 113.987 8.84 113.262 8.84C112.547 8.84 111.955 9.08 111.486 9.56C111.017 10.0293 110.782 10.6427 110.782 11.4Z" fill="#1B1B1B"/>
</svg>
